<svg width="400" height="400" viewBox="0 0 400 400" fill="none"
	xmlns="http://www.w3.org/2000/svg">
	<rect width="400" height="400" rx="20" fill="#070707" />
	<path
		d="M207.021 286.285C204.86 284.378 202.59 282.465 200.428 280.354C198.7 281.941 197.081 283.424 195.353 284.906C173.956 303.205 151.915 310.827 138.839 303.417C126.193 296.326 122.194 275.368 127.277 249.013C127.817 246.155 128.465 243.297 129.223 240.44C126.953 239.805 124.792 239.17 122.631 238.43C95.7221 229.34 78 214.509 78 199.69C78 185.405 94.543 171.537 120.357 162.648C123.275 161.696 126.302 160.741 129.435 159.894C128.678 157.141 128.136 154.498 127.597 151.957C122.194 125.172 125.978 103.796 138.73 96.6018C152.021 88.9802 174.065 97.1296 196.215 116.29C197.511 117.453 198.809 118.72 200.214 119.991C202.269 118.088 204.212 116.172 206.268 114.491C227.239 96.6018 248.086 89.0844 260.831 96.2824C274.122 103.689 278.015 126.561 272.07 154.811C271.746 156.613 271.313 158.304 270.884 160.106C273.583 160.849 276.283 161.693 278.772 162.537C305.138 171.429 322.213 185.294 321.998 199.902C321.998 214.832 303.737 229.537 275.748 238.638C274.235 239.062 272.725 239.59 271.211 240.027C271.859 242.145 272.292 244.26 272.725 246.378C278.356 273.809 274.023 296.233 260.947 303.643C257.47 305.547 253.541 306.505 249.564 306.42C237.562 306.424 222.35 299.17 207.021 286.285ZM228.203 247.44C221.968 256.339 215.148 264.825 207.788 272.844C209.84 274.857 211.892 276.663 213.948 278.347C231.776 293.375 248.202 298.986 255.872 294.646C259.441 292.635 262.464 287.555 263.872 279.83C265.434 269.328 264.993 258.63 262.574 248.288C262.25 246.381 261.817 244.468 261.275 242.465C250.367 244.806 239.32 246.463 228.199 247.427L228.203 247.44ZM137.65 250.829C133.222 273.371 136.46 290.201 144.133 294.542C147.702 296.552 153.636 296.552 161.208 293.906C171.287 290.041 180.555 284.372 188.546 277.184C190.168 275.913 191.678 274.43 193.301 272.951C185.773 264.924 178.768 256.433 172.33 247.531C161.256 246.681 150.249 245.128 139.378 242.881C138.73 245.628 138.188 248.27 137.646 250.812L137.65 250.829ZM200.541 265.646C205.296 260.458 210.044 254.743 214.807 248.392C210.051 248.604 205.082 248.708 200.112 248.708C195.247 248.708 190.493 248.602 185.849 248.392C190.447 254.38 195.349 260.134 200.538 265.632L200.541 265.646ZM177.846 162.325C173.741 168.144 169.75 174.283 165.959 180.728C162.175 187.079 158.719 193.537 155.583 199.988C158.825 206.339 162.271 212.798 166.065 219.36C169.849 225.711 173.847 231.954 177.951 237.881C185.082 238.305 192.541 238.517 200.105 238.517C207.774 238.517 215.24 238.305 222.469 237.777C226.362 231.954 230.357 225.711 234.141 219.253C237.925 212.794 241.487 206.235 244.623 199.884C241.49 193.634 237.935 187.183 234.141 180.728C230.347 174.273 226.359 168.13 222.364 162.325C215.123 161.794 207.665 161.474 200.105 161.474C192.544 161.474 185.086 161.797 177.846 162.325ZM142.187 233.135C149.611 234.69 157.114 235.858 164.664 236.631C162.07 232.607 159.479 228.586 156.991 224.353C154.615 220.228 152.236 216.096 150.074 211.971C147.07 218.884 144.438 225.949 142.187 233.135V233.135ZM243.204 224.242C240.719 228.475 238.234 232.499 235.749 236.416C243.411 235.532 251.022 234.257 258.55 232.597C256.196 225.436 253.453 218.405 250.335 211.534C248.078 215.765 245.706 220.003 243.218 224.246L243.204 224.242ZM123.708 172.394C101.667 180.013 88.3763 191.145 88.3763 199.804C88.3763 203.829 91.3998 208.909 97.4503 213.985C105.994 220.553 115.654 225.57 125.978 228.801C127.925 229.437 129.977 229.968 132.029 230.603C135.361 220.164 139.369 209.946 144.028 200.013C139.36 190.243 135.387 180.164 132.138 169.849C129.221 170.583 126.411 171.431 123.708 172.394ZM256.294 199.804C261.086 209.61 265.202 219.724 268.614 230.076C270.021 229.656 271.429 229.228 272.721 228.805C296.817 220.971 311.731 209.013 311.84 199.697C311.84 191.016 298.007 179.801 275.421 172.179C273.154 171.44 270.669 170.696 268.184 169.957C264.892 180.15 260.92 190.118 256.294 199.794V199.804ZM243.113 175.45C245.598 179.683 247.974 183.815 250.152 187.95C253.147 181.225 255.745 174.333 257.931 167.311C250.581 165.669 243.152 164.394 235.672 163.492C238.248 167.408 240.733 171.325 243.113 175.45ZM142.292 167.186C144.453 173.957 147.047 180.839 150.074 187.929C152.236 183.804 154.615 179.672 156.991 175.547C159.367 171.422 161.852 167.398 164.446 163.481C156.667 164.446 149.321 165.717 142.292 167.186ZM213.075 122.213C211.238 123.8 209.4 125.495 207.563 127.189C215.032 135.099 221.929 143.517 228.203 152.38C239.182 153.353 250.083 155.051 260.831 157.464C261.264 155.877 261.588 154.287 261.912 152.7C266.987 128.359 263.858 109.727 255.643 105.074C253.819 104.143 251.783 103.689 249.73 103.755C240.902 103.751 227.358 110.064 213.075 122.213ZM143.915 105.38C136.242 109.717 133.218 127.078 137.755 149.939C138.294 152.37 138.839 154.8 139.483 157.346C150.247 155.023 161.147 153.363 172.119 152.373C178.415 143.498 185.348 135.08 192.864 127.182C191.675 126.015 190.379 124.96 189.19 123.897C174.136 110.828 159.694 103.928 150.25 103.928C148.046 103.858 145.862 104.358 143.915 105.38V105.38ZM214.585 151.526C210.12 145.587 205.322 139.899 200.214 134.488C195.353 139.672 190.489 145.391 185.733 151.526C190.489 151.314 195.237 151.21 200.105 151.21C204.972 151.21 209.83 151.321 214.585 151.53V151.526ZM178.483 200.221C178.453 195.957 179.707 191.78 182.087 188.22C184.466 184.661 187.864 181.878 191.849 180.226C195.833 178.573 200.226 178.126 204.469 178.939C208.712 179.753 212.615 181.792 215.682 184.796C218.749 187.801 220.842 191.637 221.697 195.817C222.551 199.997 222.128 204.333 220.481 208.275C218.834 212.218 216.037 215.589 212.445 217.961C208.853 220.333 204.628 221.6 200.305 221.6C197.447 221.617 194.614 221.076 191.969 220.01C189.323 218.943 186.917 217.372 184.89 215.385C182.862 213.398 181.252 211.036 180.152 208.434C179.053 205.831 178.485 203.04 178.483 200.221V200.221Z"
		fill="#81D8F7" />
</svg>